 0
SECTION
 2
ENTITIES
  0
POLYLINE
 8
Layer0
 66
     1
70
    8
 10
0.0
 20
 0.0
 30
0.0
  0
VERTEX
  8
MY3DLAYER
10
7.49336397917304
20
89.4107951159055
30
0.0
 70
     32
  0
VERTEX
  8
MY3DLAYER
10
97.4933639791731
20
89.4107951159055
30
0.0
 70
     32
  0
VERTEX
  8
MY3DLAYER
10
98.1459949402734
20
89.3680194227745
30
0.0
 70
     32
  0
VERTEX
  8
MY3DLAYER
10
98.7874592046857
20
89.2404242473508
30
0.0
 70
     32
  0
VERTEX
  8
MY3DLAYER
10
99.4067811409985
20
89.0301927784619
30
0.0
 70
     32
  0
VERTEX
  8
MY3DLAYER
10
99.9933639791731
20
88.7409221348277
30
0.0
 70
     32
  0
VERTEX
  8
MY3DLAYER
10
100.537171124217
20
88.3775618173617
30
0.0
 70
     32
  0
VERTEX
  8
MY3DLAYER
10
101.028897885106
20
87.9463290218382
30
0.0
 70
     32
  0
VERTEX
  8
MY3DLAYER
10
101.460130680629
20
87.4546022609491
30
0.0
 70
     32
  0
VERTEX
  8
MY3DLAYER
10
101.823490998095
20
86.9107951159055
30
0.0
 70
     32
  0
VERTEX
  8
MY3DLAYER
10
102.11276164173
20
86.3242122777309
30
0.0
 70
     32
  0
VERTEX
  8
MY3DLAYER
10
102.322993110618
20
85.7048903414181
30
0.0
 70
     32
  0
VERTEX
  8
MY3DLAYER
10
102.450588286042
20
85.0634260770057
30
0.0
 70
     32
  0
VERTEX
  8
MY3DLAYER
10
102.493363979173
20
84.4107951159055
30
0.0
 70
     32
  0
VERTEX
  8
MY3DLAYER
10
102.493363979173
20
6.41079511590546
30
0.0
 70
     32
  0
VERTEX
  8
MY3DLAYER
10
102.450588286042
20
5.75816415480519
30
0.0
 70
     32
  0
VERTEX
  8
MY3DLAYER
10
102.322993110618
20
5.11669989039286
30
0.0
 70
     32
  0
VERTEX
  8
MY3DLAYER
10
102.11276164173
20
4.49737795408002
30
0.0
 70
     32
  0
VERTEX
  8
MY3DLAYER
10
101.823490998095
20
3.91079511590546
30
0.0
 70
     32
  0
VERTEX
  8
MY3DLAYER
10
101.460130680629
20
3.36698797086186
30
0.0
 70
     32
  0
VERTEX
  8
MY3DLAYER
10
101.028897885106
20
2.87526120997273
30
0.0
 70
     32
  0
VERTEX
  8
MY3DLAYER
10
100.537171124217
20
2.44402841444928
30
0.0
 70
     32
  0
VERTEX
  8
MY3DLAYER
10
99.9933639791731
20
2.08066809698327
30
0.0
 70
     32
  0
VERTEX
  8
MY3DLAYER
10
99.4067811409985
20
1.79139745334904
30
0.0
 70
     32
  0
VERTEX
  8
MY3DLAYER
10
98.7874592046857
20
1.58116598446013
30
0.0
 70
     32
  0
VERTEX
  8
MY3DLAYER
10
98.1459949402734
20
1.45357080903642
30
0.0
 70
     32
  0
VERTEX
  8
MY3DLAYER
10
97.4933639791731
20
1.41079511590547
30
0.0
 70
     32
  0
VERTEX
  8
MY3DLAYER
10
7.49336397917302
20
1.41079511590547
30
0.0
 70
     32
  0
VERTEX
  8
MY3DLAYER
10
6.84073301807277
20
1.45357080903642
30
0.0
 70
     32
  0
VERTEX
  8
MY3DLAYER
10
6.19926875366042
20
1.58116598446013
30
0.0
 70
     32
  0
VERTEX
  8
MY3DLAYER
10
5.57994681734758
20
1.79139745334904
30
0.0
 70
     32
  0
VERTEX
  8
MY3DLAYER
10
4.99336397917303
20
2.08066809698327
30
0.0
 70
     32
  0
VERTEX
  8
MY3DLAYER
10
4.44955683412942
20
2.44402841444928
30
0.0
 70
     32
  0
VERTEX
  8
MY3DLAYER
10
3.95783007324029
20
2.87526120997273
30
0.0
 70
     32
  0
VERTEX
  8
MY3DLAYER
10
3.52659727771685
20
3.36698797086186
30
0.0
 70
     32
  0
VERTEX
  8
MY3DLAYER
10
3.16323696025084
20
3.91079511590546
30
0.0
 70
     32
  0
VERTEX
  8
MY3DLAYER
10
2.8739663166166
20
4.49737795408002
30
0.0
 70
     32
  0
VERTEX
  8
MY3DLAYER
10
2.66373484772769
20
5.11669989039286
30
0.0
 70
     32
  0
VERTEX
  8
MY3DLAYER
10
2.53613967230399
20
5.75816415480519
30
0.0
 70
     32
  0
VERTEX
  8
MY3DLAYER
10
2.49336397917303
20
6.41079511590546
30
0.0
 70
     32
  0
VERTEX
  8
MY3DLAYER
10
2.49336397917305
20
84.4107951159055
30
0.0
 70
     32
  0
VERTEX
  8
MY3DLAYER
10
2.53613967230399
20
85.0634260770057
30
0.0
 70
     32
  0
VERTEX
  8
MY3DLAYER
10
2.6637348477277
20
85.7048903414181
30
0.0
 70
     32
  0
VERTEX
  8
MY3DLAYER
10
2.87396631661661
20
86.3242122777309
30
0.0
 70
     32
  0
VERTEX
  8
MY3DLAYER
10
3.16323696025085
20
86.9107951159055
30
0.0
 70
     32
  0
VERTEX
  8
MY3DLAYER
10
3.52659727771686
20
87.4546022609491
30
0.0
 70
     32
  0
VERTEX
  8
MY3DLAYER
10
3.9578300732403
20
87.9463290218382
30
0.0
 70
     32
  0
VERTEX
  8
MY3DLAYER
10
4.44955683412943
20
88.3775618173617
30
0.0
 70
     32
  0
VERTEX
  8
MY3DLAYER
10
4.99336397917304
20
88.7409221348277
30
0.0
 70
     32
  0
VERTEX
  8
MY3DLAYER
10
5.57994681734759
20
89.0301927784619
30
0.0
 70
     32
  0
VERTEX
  8
MY3DLAYER
10
6.19926875366043
20
89.2404242473508
30
0.0
 70
     32
  0
VERTEX
  8
MY3DLAYER
10
6.84073301807278
20
89.3680194227745
30
0.0
 70
     32
  0
VERTEX
  8
MY3DLAYER
10
7.49336397917304
20
89.4107951159055
30
0.0
 70
     32
  0
SEQEND
 0
ENDSEC
 0
EOF
